# xmcd
#
# Track frame offsets:
#        150
#        18155
#        37755
#
# Disc length: 801 seconds
#
# Revision: 0
# Processed by: cddbd v1.5.1PL0 Copyright (c) Steve Scherf et al.
# Submitted via: ExactAudioCopy v0.95a5
#
DISCID=12031f03
DTITLE=Beverly Brown With Dennis Taylor - Could Be You
DYEAR=2002
DGENRE=R&B
TTITLE0=Could Be You
TTITLE1=Part Time Lover
TTITLE2=In The Summer Time
EXTD=
EXTT0=
EXTT1=
EXTT2=
PLAYORDER=
